<?xml version="1.0" encoding="UTF-8" standalone="no"?>
<svg
   width="961"
   height="274"
   version="1.1"
   desc="Created with imagetracer.js version 1.2.6"
   id="svg504"
   sodipodi:docname="logo.svg"
   inkscape:version="1.2.2 (b0a8486541, 2022-12-01)"
   viewBox="281 320 961 274"
   xmlns:inkscape="http://www.inkscape.org/namespaces/inkscape"
   xmlns:sodipodi="http://sodipodi.sourceforge.net/DTD/sodipodi-0.dtd"
   xmlns="http://www.w3.org/2000/svg"
   xmlns:svg="http://www.w3.org/2000/svg">
  <defs
     id="defs508" />
  <sodipodi:namedview
     id="namedview506"
     pagecolor="#505050"
     bordercolor="#ffffff"
     borderopacity="1"
     inkscape:showpageshadow="0"
     inkscape:pageopacity="0"
     inkscape:pagecheckerboard="1"
     inkscape:deskcolor="#505050"
     showgrid="false"
     inkscape:zoom="0.60306633"
     inkscape:cx="474.24302"
     inkscape:cy="134.31358"
     inkscape:window-width="2560"
     inkscape:window-height="1308"
     inkscape:window-x="2560"
     inkscape:window-y="32"
     inkscape:window-maximized="1"
     inkscape:current-layer="svg504" />
  <path
     fill="rgb(186,148,160)"
     stroke="rgb(186,148,160)"
     stroke-width="1"
     opacity="0.960784"
     d="m 558,345 h 31 v 29 h -13.5 l -3,1 h -2 -11 l -1.5,-1.5 z"
     id="path460"
     style="fill:#81d6fb;fill-opacity:1;stroke:#81d6fb;stroke-opacity:1" />
  <path
     fill="rgb(186,148,160)"
     stroke="rgb(186,148,160)"
     stroke-width="1"
     opacity="0.960784"
     d="m 499.5,358 h 9.5 v 16 l -16,1 v -16 h 5.5 z"
     id="path462"
     style="fill:#81d6fb;fill-opacity:1;stroke:#81d6fb;stroke-opacity:1" />
  <path
     fill="rgb(186,148,160)"
     stroke="rgb(186,148,160)"
     stroke-width="1"
     opacity="0.960784"
     d="m 520.5,375 h 27 l 1.5,1.5 V 404 h -28.5 l -1.5,-1.5 v -26 z"
     id="path464"
     style="fill:#81d6fb;fill-opacity:1;stroke:#81d6fb;stroke-opacity:1" />
  <path
     fill="rgb(186,148,160)"
     stroke="rgb(186,148,160)"
     stroke-width="1"
     opacity="0.960784"
     d="m 462.5,397 17,2 5.5,3.5 1,2 v 33 l -3.5,5.5 -3,1 h -17 l -1,1 -78,1 -3.5,-3.5 -1,-18 1,-1 v -14 l 3.5,-3.5 11,-2 h 8 l 1,-1 h 10 l 1,-1 26,-2 1,-1 20,-1 z"
     id="path466"
     style="fill:#841b25;fill-opacity:1;stroke:#591e22;stroke-opacity:1" />
  <path
     fill="rgb(186,148,160)"
     stroke="rgb(186,148,160)"
     stroke-width="1"
     opacity="0.960784"
     d="m 557,407 h 25 v 27 h -25.5 l -0.5,-1.5 1,-1 z"
     id="path468"
     style="fill:#81d6fb;fill-opacity:1;stroke:#81d6fb;stroke-opacity:1" />
  <path
     fill="rgb(186,148,160)"
     stroke="rgb(186,148,160)"
     stroke-width="1"
     opacity="0.960784"
     d="m 501,415 h 16 v 16 l -14.5,1 -1.5,-1.5 z"
     id="path470"
     style="fill:#81d6fb;fill-opacity:1;stroke:#81d6fb;stroke-opacity:1" />
  <path
     fill="rgb(186,148,160)"
     stroke="rgb(186,148,160)"
     stroke-width="1"
     opacity="0.960784"
     d="m 797.5,419 h 7 l 8.5,6.5 q 2.7,3.3 2,10 l -5.5,8.5 -7,3 h -4 l -9.5,-6.5 q -3.5,-4 -2,-13 l 5.5,-6.5 z"
     id="path472"
     style="fill:#ffffff;fill-opacity:1;stroke:#ffffff;stroke-opacity:1" />
  <path
     fill="rgb(186,148,160)"
     stroke="rgb(186,148,160)"
     stroke-width="1"
     opacity="0.960784"
     d="m 1048.5,419 h 15 l 15,3 q 16.5,6 26.5,18.5 8,9 12,22 l 2,11 v 16 l -2,11 -3,8 -11,16 q 10.1,11.4 23.5,19.5 10.5,6 25.5,7.5 l -13.5,5.5 -20,1 -15,-5 -18,-15 h -2 l -14,5 -20,1 -17,-4 -8,-4 -13.5,-10 -9,-12.5 -6,-14 -2,-11 v -17 q 4.6,-23.4 19.5,-36.5 l 12,-9 13,-5 z m 3.5,24 -8,2 -7,4 -10,11 -4,8 -2,10 q 0,19 9,30 7,9 21,11 h 10 l 5,-1 v -1 l -15,-16 4,-2 17,1 11,7 6,-9 3,-15 -2,-15 -4,-9 q -6,-10 -16,-14 l -8,-2 z"
     id="path474"
     style="fill:#81d6fb;fill-opacity:1;stroke:#81d6fb;stroke-opacity:1" />
  <path
     fill="rgb(186,148,160)"
     stroke="rgb(186,148,160)"
     stroke-width="1"
     opacity="0.960784"
     d="m 623,422 h 49.5 q 1.3,2.2 6,1 13.2,2.8 20.5,11.5 l 4,7 2,13 -2,10 -7.5,9.5 -2.5,1.5 q 8.2,3.3 13,10 l 5,13 v 9 q -2.8,13.2 -11.5,20.5 l -8,5 -16,4 H 623 Z m 27,23 v 22 l 3,1 q 16,2 23,-4 l 3,-7 q -2,-2 -1,-6 -3,-5 -8,-6 z m 0,44 v 26 h 21 l 9,-3 4,-6 q 1,-9 -2,-13 l -8,-4 z"
     id="path476"
     style="fill:#ffffff;fill-opacity:1;stroke:#ffffff;stroke-opacity:1" />
  <path
     fill="rgb(186,148,160)"
     stroke="rgb(186,148,160)"
     stroke-width="1"
     opacity="0.960784"
     d="m 908,422 h 23.5 l 1.5,1.5 0.5,63.5 24,-31 h 26 l 0.5,1.5 -26,34 -1,4 32,41.5 H 960.5 L 957,533.5 Q 946.8,516.8 933.5,503 l -0.5,34 h -24.5 l -0.5,-0.5 z"
     id="path478"
     style="fill:#ffffff;stroke:#ffffff;stroke-opacity:1" />
  <path
     fill="rgb(186,148,160)"
     stroke="rgb(186,148,160)"
     stroke-width="1"
     opacity="0.960784"
     d="m 1134,422 h 24.5 l 1.5,1.5 V 514 h 54 v 23 h -79.5 l -1.5,-1.5 v -108 z"
     id="path480"
     style="fill:#81d6fb;fill-opacity:1;stroke:#81d6fb;stroke-opacity:1" />
  <path
     fill="rgb(186,148,160)"
     stroke="rgb(186,148,160)"
     stroke-width="1"
     opacity="0.960784"
     d="m 862.5,454 q 23.3,-0.2 33.5,12.5 l -11.5,15.5 -13,-6 h -6 q -9.2,1.8 -13.5,8.5 l -2,5 v 14 q 0.9,6.6 5.5,9.5 5,4 14,4 l 15,-7 11.5,16.5 q -5.8,7.2 -15.5,10.5 l -10,2 h -10 l -9,-2 -14.5,-8 -10,-14.5 -3,-11 v -12 q 2.3,-1.3 1,-6 l 5,-12 9.5,-10.5 13,-7 z"
     id="path482"
     style="fill:#ffffff;fill-opacity:1;stroke:#ffffff;stroke-opacity:1" />
  <path
     fill="rgb(186,148,160)"
     stroke="rgb(186,148,160)"
     stroke-width="1"
     opacity="0.960784"
     d="m 450.5,455 h 83 l 3.5,3.5 1,2 v 35 l -2.5,3.5 -5,2 -16,1 -1,1 h -19 l -1,-1 -54,-2 -3.5,-2.5 -2,-3 v -27 q 2.7,-1.7 1,-8 l 3.5,-3.5 h 11 z"
     id="path484"
     style="fill:#841b25;fill-opacity:1;stroke:#591e22;stroke-opacity:1" />
  <path
     fill="rgb(186,148,160)"
     stroke="rgb(186,148,160)"
     stroke-width="1"
     opacity="0.960784"
     d="m 763.5,455 q 8.9,-1.2 12.5,1 l -2,24 q -17.6,-1.3 -25,8.5 V 537 h -23.5 l -1.5,-1.5 v -69 l -1,-1 V 459 l 12.5,-3 h 7 l 5,10 q 5.8,-7.7 16,-11 z"
     id="path486"
     style="fill:#ffffff;fill-opacity:1;stroke:#ffffff;stroke-opacity:1" />
  <path
     fill="rgb(186,148,160)"
     stroke="rgb(186,148,160)"
     stroke-width="1"
     opacity="0.960784"
     d="m 401.5,456 h 16 l 2,1 3,-1 6.5,2.5 1,2 v 35 l -1,2.5 h -12.5 l -3,1 -1,-1 -67,-2 -5.5,-3.5 q 1.3,-4.8 -1,-6 v -20 q 2.5,-1.5 1,-7 l 1.5,-1.5 5,-1 h 54 z"
     id="path488"
     style="fill:#841b25;fill-opacity:1;stroke:#591e22;stroke-opacity:1" />
  <path
     fill="rgb(186,148,160)"
     stroke="rgb(186,148,160)"
     stroke-width="1"
     opacity="0.960784"
     d="m 789,456 h 23.5 l 0.5,0.5 V 537 h -23.5 l -1.5,-1.5 v -57 l 1,-1 z"
     id="path490"
     style="fill:#ffffff;fill-opacity:1;stroke:#ffffff;stroke-opacity:1" />
  <path
     fill="rgb(186,148,160)"
     stroke="rgb(186,148,160)"
     stroke-width="1"
     opacity="0.960784"
     d="m 310.5,504 h 44 l 1,1 h 16 q 1.3,2.2 6,1 l 3.5,2.5 1,2 v 32 l -2.5,4.5 q -5.9,2.6 -16,1 l -1,-1 -16,-1 -1,-1 h -7 l -1,-1 -27,-3 -3.5,-2.5 -1,-2 v -28 l 2.5,-3.5 z"
     id="path492"
     style="fill:#841b25;fill-opacity:1;stroke:#591e22;stroke-opacity:1" />
  <path
     fill="rgb(186,148,160)"
     stroke="rgb(186,148,160)"
     stroke-width="1"
     opacity="0.960784"
     d="m 389.5,509 h 54 l 1,1 h 20 l 1,1 h 18 l 1,1 h 37 l 1,-1 23,-2 1,1 h 26 l 4,1 2.5,2.5 1,2 v 33 l -3.5,5.5 q -23.1,7.9 -49,13 h -17 l -1,-1 -30,-3 -8,-2 h -7 l -1,-1 -63,-7 -10,-2 -5.5,-4.5 -1,-4 v -27 l 3.5,-5.5 z"
     id="path494"
     style="fill:#841b25;fill-opacity:1;stroke:#591e22;stroke-opacity:1" />
  <path
     fill="#000000"
     stroke="#000000"
     stroke-width="1"
     opacity="0"
     d="M 0,0 H 1536 V 1024 H 0 Z m 558,345 v 29 l 2,1 h 11 2 l 3,-1 h 13 v -29 z m -58,13 -1,1 h -6 v 16 l 16,-1 v -16 z m 21,17 -2,2 v 26 l 2,1 h 28 v -27 l -1,-2 z m -58,22 -1,1 -20,1 -1,1 -26,2 -1,1 h -10 l -1,1 h -8 l -11,2 -4,4 v 14 l -1,1 1,18 4,3 78,-1 1,-1 h 17 l 3,-1 3,-5 v -33 l -1,-2 -5,-4 z m 94,10 v 25 l -1,1 1,1 h 25 v -27 z m -56,8 v 16 l 2,1 14,-1 v -16 z m 297,4 -5,2 -6,7 q -1,9 2,13 l 10,6 h 4 l 7,-3 5,-8 q 1,-7 -2,-10 l -8,-7 z m 251,0 -10,2 -13,5 -12,9 q -15,13 -20,37 v 17 l 2,11 6,14 9,12 14,10 8,4 17,4 20,-1 14,-5 h 2 l 18,15 15,5 20,-1 13,-5 q -15,-2 -25,-8 -14,-8 -24,-19 l 11,-16 3,-8 2,-11 v -16 l -2,-11 q -4,-13 -12,-22 -10,-13 -26,-19 l -15,-3 z m -426,3 v 115 h 53 l 16,-4 8,-5 q 8,-7 11,-20 v -9 l -5,-13 q -5,-7 -13,-10 l 3,-2 7,-9 2,-10 -2,-13 -4,-7 q -7,-9 -20,-12 -5,1 -6,-1 z m 285,0 v 115 h 1 24 l 1,-34 q 13,14 23,31 l 4,3 h 28 l -32,-41 1,-4 26,-34 v -2 h -26 l -24,31 -1,-63 -1,-2 z m 226,0 -1,6 v 108 l 2,1 h 79 v -23 h -54 v -90 l -1,-2 z m -271,32 -10,2 -13,7 -10,11 -5,12 q 1,4 -1,6 v 12 l 3,11 10,14 15,8 9,2 h 10 l 10,-2 q 9,-3 15,-10 l -11,-17 -15,7 q -9,0 -14,-4 -5,-3 -6,-9 v -14 l 2,-5 q 4,-7 14,-9 h 6 l 13,6 11,-15 q -10,-13 -33,-13 z m -412,1 -1,1 h -11 l -4,4 q 2,6 -1,8 v 27 l 2,3 4,2 54,2 1,1 h 19 l 1,-1 16,-1 5,-2 2,-3 v -35 l -1,-2 -3,-4 z m 313,0 q -11,3 -16,11 l -5,-10 h -7 l -13,3 v 7 l 1,1 v 69 l 2,1 h 23 v -48 q 7,-10 25,-9 l 2,-24 q -4,-2 -12,-1 z m -362,1 -1,1 h -54 l -5,1 -2,2 q 2,5 -1,7 v 20 q 2,1 1,6 l 6,3 67,2 1,1 3,-1 h 12 l 1,-2 v -35 l -1,-2 -6,-3 -3,1 -2,-1 z m 387,0 v 22 l -1,1 v 57 l 2,1 h 23 v -80 -1 z m -478,48 -2,1 -3,4 v 28 l 1,2 4,2 27,3 1,1 h 7 l 1,1 16,1 1,1 q 10,2 16,-1 l 2,-4 v -32 l -1,-2 -3,-3 q -5,1 -6,-1 h -16 l -1,-1 z m 79,5 -2,1 -4,6 v 27 l 1,4 6,4 10,2 63,7 1,1 h 7 l 8,2 30,3 1,1 h 17 q 25,-5 49,-13 l 3,-5 v -33 l -1,-2 -2,-3 -4,-1 h -26 l -1,-1 -23,2 -1,1 h -37 l -1,-1 h -18 l -1,-1 h -20 l -1,-1 z"
     id="path496" />
  <path
     fill="#000000"
     stroke="#000000"
     stroke-width="1"
     opacity="0"
     d="m 1051.5,443 h 10 l 8,2 q 10.8,4.3 16.5,13.5 l 4,9 2,15 -3,15 -6.5,9.5 -11,-7 -17,-1 -3.5,1.5 15,16 v 1.5 l -5.5,1 h -10 q -13.7,-2.3 -20.5,-11.5 -9.3,-10.2 -9,-30 l 2,-10 4,-8 9.5,-10.5 7,-4 z"
     id="path498" />
  <path
     fill="#000000"
     stroke="#000000"
     stroke-width="1"
     opacity="0"
     d="m 650,445 h 19.5 q 5.8,1.3 8.5,5.5 -1.2,4.8 1,6 l -3,7.5 q -7.2,6 -23.5,4 l -2.5,-1 z"
     id="path500" />
  <path
     fill="#000000"
     stroke="#000000"
     stroke-width="1"
     opacity="0"
     d="m 650,489 h 23.5 l 8.5,4 q 3.1,3.6 2,12.5 l -4.5,6.5 -9,3 H 650 Z"
     id="path502" />
  <text
     xml:space="preserve"
     style="fill:#81d6fb;fill-opacity:1;stroke:#81d6fb;stroke-opacity:1"
     x="622.59174"
     y="771.78955"
     id="text30291"><tspan
       sodipodi:role="line"
       id="tspan30289"
       x="622.59174"
       y="771.78955" /></text>
</svg>
