<?xml version="1.0" encoding="UTF-8" standalone="no"?>
<svg
   width="1536"
   height="1024"
   version="1.1"
   desc="Created with imagetracer.js version 1.2.6"
   id="svg504"
   sodipodi:docname="logo.svg"
   inkscape:version="1.2.2 (b0a8486541, 2022-12-01)"
   xmlns:inkscape="http://www.inkscape.org/namespaces/inkscape"
   xmlns:sodipodi="http://sodipodi.sourceforge.net/DTD/sodipodi-0.dtd"
   xmlns="http://www.w3.org/2000/svg"
   xmlns:svg="http://www.w3.org/2000/svg">
  <defs
     id="defs508" />
  <sodipodi:namedview
     id="namedview506"
     pagecolor="#505050"
     bordercolor="#ffffff"
     borderopacity="1"
     inkscape:showpageshadow="0"
     inkscape:pageopacity="0"
     inkscape:pagecheckerboard="1"
     inkscape:deskcolor="#505050"
     showgrid="false"
     inkscape:zoom="0.60306633"
     inkscape:cx="1061.2431"
     inkscape:cy="160.84466"
     inkscape:window-width="2560"
     inkscape:window-height="1308"
     inkscape:window-x="2560"
     inkscape:window-y="32"
     inkscape:window-maximized="1"
     inkscape:current-layer="svg504" />
  <path
     fill="rgb(186,148,160)"
     stroke="rgb(186,148,160)"
     stroke-width="1"
     opacity="0.9607843137254902"
     d="M 558 345 L 589 345 L 589 374 L 575.5 374 L 572.5 375 L 570.5 375 L 559.5 375 L 558 373.5 L 558 345 Z "
     id="path460"
     style="fill:#81d6fb;fill-opacity:1;stroke:#81d6fb;stroke-opacity:1" />
  <path
     fill="rgb(186,148,160)"
     stroke="rgb(186,148,160)"
     stroke-width="1"
     opacity="0.9607843137254902"
     d="M 499.5 358 L 509 358 L 509 374 L 493 375 L 493 359 L 498.5 359 L 499.5 358 Z "
     id="path462"
     style="stroke:#81d6fb;stroke-opacity:1;fill:#81d6fb;fill-opacity:1" />
  <path
     fill="rgb(186,148,160)"
     stroke="rgb(186,148,160)"
     stroke-width="1"
     opacity="0.9607843137254902"
     d="M 520.5 375 L 547.5 375 L 549 376.5 L 549 404 L 520.5 404 L 519 402.5 L 519 376.5 L 520.5 375 Z "
     id="path464"
     style="fill:#81d6fb;fill-opacity:1;stroke:#81d6fb;stroke-opacity:1" />
  <path
     fill="rgb(186,148,160)"
     stroke="rgb(186,148,160)"
     stroke-width="1"
     opacity="0.9607843137254902"
     d="M 462.5 397 L 479.5 399 L 485 402.5 L 486 404.5 L 486 437.5 L 482.5 443 L 479.5 444 L 462.5 444 L 461.5 445 L 383.5 446 L 380 442.5 L 379 424.5 L 380 423.5 L 380 409.5 L 383.5 406 L 394.5 404 L 402.5 404 L 403.5 403 L 413.5 403 L 414.5 402 L 440.5 400 L 441.5 399 L 461.5 398 L 462.5 397 Z "
     id="path466"
     style="fill:#841b25;fill-opacity:1;stroke:#591e22;stroke-opacity:1" />
  <path
     fill="rgb(186,148,160)"
     stroke="rgb(186,148,160)"
     stroke-width="1"
     opacity="0.9607843137254902"
     d="M 557 407 L 582 407 L 582 434 L 556.5 434 L 556 432.5 L 557 431.5 L 557 407 Z "
     id="path468"
     style="fill:#81d6fb;fill-opacity:1;stroke:#81d6fb;stroke-opacity:1" />
  <path
     fill="rgb(186,148,160)"
     stroke="rgb(186,148,160)"
     stroke-width="1"
     opacity="0.9607843137254902"
     d="M 501 415 L 517 415 L 517 431 L 502.5 432 L 501 430.5 L 501 415 Z "
     id="path470"
     style="fill:#81d6fb;fill-opacity:1;stroke:#81d6fb;stroke-opacity:1" />
  <path
     fill="rgb(186,148,160)"
     stroke="rgb(186,148,160)"
     stroke-width="1"
     opacity="0.9607843137254902"
     d="M 797.5 419 L 804.5 419 L 813 425.5 Q 815.7 428.8 815 435.5 L 809.5 444 L 802.5 447 L 798.5 447 L 789 440.5 Q 785.5 436.5 787 427.5 L 792.5 421 L 797.5 419 Z "
     id="path472"
     style="fill:#ffffff;fill-opacity:1;stroke:#ffffff;stroke-opacity:1" />
  <path
     fill="rgb(186,148,160)"
     stroke="rgb(186,148,160)"
     stroke-width="1"
     opacity="0.9607843137254902"
     d="M 1048.5 419 L 1063.5 419 L 1078.5 422 Q 1095 428 1105 440.5 Q 1113 449.5 1117 462.5 L 1119 473.5 L 1119 489.5 L 1117 500.5 L 1114 508.5 L 1103 524.5 Q 1113.1 535.9 1126.5 544 Q 1137 550 1152 551.5 L 1138.5 557 L 1118.5 558 L 1103.5 553 L 1085.5 538 L 1083.5 538 L 1069.5 543 L 1049.5 544 L 1032.5 540 L 1024.5 536 L 1011 526 L 1002 513.5 L 996 499.5 L 994 488.5 L 994 471.5 Q 998.6 448.1 1013.5 435 L 1025.5 426 L 1038.5 421 L 1048.5 419 Z M 1052 443 L 1044 445 L 1037 449 L 1027 460 L 1023 468 L 1021 478 Q 1021 497 1030 508 Q 1037 517 1051 519 L 1061 519 L 1066 518 L 1066 517 L 1051 501 L 1055 499 L 1072 500 L 1083 507 L 1089 498 L 1092 483 L 1090 468 L 1086 459 Q 1080 449 1070 445 L 1062 443 L 1052 443 Z "
     id="path474"
     style="fill:#81d6fb;fill-opacity:1;stroke:#81d6fb;stroke-opacity:1" />
  <path
     fill="rgb(186,148,160)"
     stroke="rgb(186,148,160)"
     stroke-width="1"
     opacity="0.9607843137254902"
     d="M 623 422 L 672.5 422 Q 673.8 424.2 678.5 423 Q 691.7 425.8 699 434.5 L 703 441.5 L 705 454.5 L 703 464.5 L 695.5 474 L 693 475.5 Q 701.2 478.8 706 485.5 L 711 498.5 L 711 507.5 Q 708.2 520.7 699.5 528 L 691.5 533 L 675.5 537 L 623 537 L 623 422 Z M 650 445 L 650 467 L 653 468 Q 669 470 676 464 L 679 457 Q 677 455 678 451 Q 675 446 670 445 L 650 445 Z M 650 489 L 650 515 L 671 515 L 680 512 L 684 506 Q 685 497 682 493 L 674 489 L 650 489 Z "
     id="path476"
     style="stroke:#ffffff;stroke-opacity:1;fill:#ffffff;fill-opacity:1" />
  <path
     fill="rgb(186,148,160)"
     stroke="rgb(186,148,160)"
     stroke-width="1"
     opacity="0.9607843137254902"
     d="M 908 422 L 931.5 422 L 933 423.5 L 933.5 487 L 957.5 456 L 983.5 456 L 984 457.5 L 958 491.5 L 957 495.5 L 989 537 L 960.5 537 L 957 533.5 Q 946.8 516.8 933.5 503 L 933 537 L 908.5 537 L 908 536.5 L 908 422 Z "
     id="path478"
     style="fill:#ffffff;stroke:#ffffff;stroke-opacity:1" />
  <path
     fill="rgb(186,148,160)"
     stroke="rgb(186,148,160)"
     stroke-width="1"
     opacity="0.9607843137254902"
     d="M 1134 422 L 1158.5 422 L 1160 423.5 L 1160 514 L 1214 514 L 1214 537 L 1134.5 537 L 1133 535.5 L 1133 427.5 L 1134 422 Z "
     id="path480"
     style="fill:#81d6fb;fill-opacity:1;stroke:#81d6fb;stroke-opacity:1" />
  <path
     fill="rgb(186,148,160)"
     stroke="rgb(186,148,160)"
     stroke-width="1"
     opacity="0.9607843137254902"
     d="M 862.5 454 Q 885.8 453.8 896 466.5 L 884.5 482 L 871.5 476 L 865.5 476 Q 856.3 477.8 852 484.5 L 850 489.5 L 850 503.5 Q 850.9 510.1 855.5 513 Q 860.5 517 869.5 517 L 884.5 510 L 896 526.5 Q 890.2 533.7 880.5 537 L 870.5 539 L 860.5 539 L 851.5 537 L 837 529 L 827 514.5 L 824 503.5 L 824 491.5 Q 826.3 490.2 825 485.5 L 830 473.5 L 839.5 463 L 852.5 456 L 862.5 454 Z "
     id="path482"
     style="fill:#ffffff;fill-opacity:1;stroke:#ffffff;stroke-opacity:1" />
  <path
     fill="rgb(186,148,160)"
     stroke="rgb(186,148,160)"
     stroke-width="1"
     opacity="0.9607843137254902"
     d="M 450.5 455 L 533.5 455 L 537 458.5 L 538 460.5 L 538 495.5 L 535.5 499 L 530.5 501 L 514.5 502 L 513.5 503 L 494.5 503 L 493.5 502 L 439.5 500 L 436 497.5 L 434 494.5 L 434 467.5 Q 436.7 465.8 435 459.5 L 438.5 456 L 449.5 456 L 450.5 455 Z "
     id="path484"
     style="fill:#841b25;fill-opacity:1;stroke:#591e22;stroke-opacity:1" />
  <path
     fill="rgb(186,148,160)"
     stroke="rgb(186,148,160)"
     stroke-width="1"
     opacity="0.9607843137254902"
     d="M 763.5 455 Q 772.4 453.8 776 456 L 774 480 Q 756.4 478.7 749 488.5 L 749 537 L 725.5 537 L 724 535.5 L 724 466.5 L 723 465.5 L 723 459 L 735.5 456 L 742.5 456 L 747.5 466 Q 753.3 458.3 763.5 455 Z "
     id="path486"
     style="fill:#ffffff;fill-opacity:1;stroke:#ffffff;stroke-opacity:1" />
  <path
     fill="rgb(186,148,160)"
     stroke="rgb(186,148,160)"
     stroke-width="1"
     opacity="0.9607843137254902"
     d="M 401.5 456 L 417.5 456 L 419.5 457 L 422.5 456 L 429 458.5 L 430 460.5 L 430 495.5 L 429 498 L 416.5 498 L 413.5 499 L 412.5 498 L 345.5 496 L 340 492.5 Q 341.3 487.7 339 486.5 L 339 466.5 Q 341.5 465 340 459.5 L 341.5 458 L 346.5 457 L 400.5 457 L 401.5 456 Z "
     id="path488"
     style="fill:#841b25;fill-opacity:1;stroke:#591e22;stroke-opacity:1" />
  <path
     fill="rgb(186,148,160)"
     stroke="rgb(186,148,160)"
     stroke-width="1"
     opacity="0.9607843137254902"
     d="M 789 456 L 812.5 456 L 813 456.5 L 813 537 L 789.5 537 L 788 535.5 L 788 478.5 L 789 477.5 L 789 456 Z "
     id="path490"
     style="fill:#ffffff;fill-opacity:1;stroke:#ffffff;stroke-opacity:1" />
  <path
     fill="rgb(186,148,160)"
     stroke="rgb(186,148,160)"
     stroke-width="1"
     opacity="0.9607843137254902"
     d="M 310.5 504 L 354.5 504 L 355.5 505 L 371.5 505 Q 372.8 507.2 377.5 506 L 381 508.5 L 382 510.5 L 382 542.5 L 379.5 547 Q 373.6 549.6 363.5 548 L 362.5 547 L 346.5 546 L 345.5 545 L 338.5 545 L 337.5 544 L 310.5 541 L 307 538.5 L 306 536.5 L 306 508.5 L 308.5 505 L 310.5 504 Z "
     id="path492"
     style="fill:#841b25;fill-opacity:1;stroke:#591e22;stroke-opacity:1" />
  <path
     fill="rgb(186,148,160)"
     stroke="rgb(186,148,160)"
     stroke-width="1"
     opacity="0.9607843137254902"
     d="M 389.5 509 L 443.5 509 L 444.5 510 L 464.5 510 L 465.5 511 L 483.5 511 L 484.5 512 L 521.5 512 L 522.5 511 L 545.5 509 L 546.5 510 L 572.5 510 L 576.5 511 L 579 513.5 L 580 515.5 L 580 548.5 L 576.5 554 Q 553.4 561.9 527.5 567 L 510.5 567 L 509.5 566 L 479.5 563 L 471.5 561 L 464.5 561 L 463.5 560 L 400.5 553 L 390.5 551 L 385 546.5 L 384 542.5 L 384 515.5 L 387.5 510 L 389.5 509 Z "
     id="path494"
     style="fill:#841b25;fill-opacity:1;stroke:#591e22;stroke-opacity:1" />
  <path
     fill="rgb(0,0,0)"
     stroke="rgb(0,0,0)"
     stroke-width="1"
     opacity="0"
     d="M 0 0 L 1536 0 L 1536 1024 L 0 1024 L 0 0 Z M 558 345 L 558 374 L 560 375 L 571 375 L 573 375 L 576 374 L 589 374 L 589 345 L 558 345 Z M 500 358 L 499 359 L 493 359 L 493 375 L 509 374 L 509 358 L 500 358 Z M 521 375 L 519 377 L 519 403 L 521 404 L 549 404 L 549 377 L 548 375 L 521 375 Z M 463 397 L 462 398 L 442 399 L 441 400 L 415 402 L 414 403 L 404 403 L 403 404 L 395 404 L 384 406 L 380 410 L 380 424 L 379 425 L 380 443 L 384 446 L 462 445 L 463 444 L 480 444 L 483 443 L 486 438 L 486 405 L 485 403 L 480 399 L 463 397 Z M 557 407 L 557 432 L 556 433 L 557 434 L 582 434 L 582 407 L 557 407 Z M 501 415 L 501 431 L 503 432 L 517 431 L 517 415 L 501 415 Z M 798 419 L 793 421 L 787 428 Q 786 437 789 441 L 799 447 L 803 447 L 810 444 L 815 436 Q 816 429 813 426 L 805 419 L 798 419 Z M 1049 419 L 1039 421 L 1026 426 L 1014 435 Q 999 448 994 472 L 994 489 L 996 500 L 1002 514 L 1011 526 L 1025 536 L 1033 540 L 1050 544 L 1070 543 L 1084 538 L 1086 538 L 1104 553 L 1119 558 L 1139 557 L 1152 552 Q 1137 550 1127 544 Q 1113 536 1103 525 L 1114 509 L 1117 501 L 1119 490 L 1119 474 L 1117 463 Q 1113 450 1105 441 Q 1095 428 1079 422 L 1064 419 L 1049 419 Z M 623 422 L 623 537 L 676 537 L 692 533 L 700 528 Q 708 521 711 508 L 711 499 L 706 486 Q 701 479 693 476 L 696 474 L 703 465 L 705 455 L 703 442 L 699 435 Q 692 426 679 423 Q 674 424 673 422 L 623 422 Z M 908 422 L 908 537 L 909 537 L 933 537 L 934 503 Q 947 517 957 534 L 961 537 L 989 537 L 957 496 L 958 492 L 984 458 L 984 456 L 958 456 L 934 487 L 933 424 L 932 422 L 908 422 Z M 1134 422 L 1133 428 L 1133 536 L 1135 537 L 1214 537 L 1214 514 L 1160 514 L 1160 424 L 1159 422 L 1134 422 Z M 863 454 L 853 456 L 840 463 L 830 474 L 825 486 Q 826 490 824 492 L 824 504 L 827 515 L 837 529 L 852 537 L 861 539 L 871 539 L 881 537 Q 890 534 896 527 L 885 510 L 870 517 Q 861 517 856 513 Q 851 510 850 504 L 850 490 L 852 485 Q 856 478 866 476 L 872 476 L 885 482 L 896 467 Q 886 454 863 454 Z M 451 455 L 450 456 L 439 456 L 435 460 Q 437 466 434 468 L 434 495 L 436 498 L 440 500 L 494 502 L 495 503 L 514 503 L 515 502 L 531 501 L 536 499 L 538 496 L 538 461 L 537 459 L 534 455 L 451 455 Z M 764 455 Q 753 458 748 466 L 743 456 L 736 456 L 723 459 L 723 466 L 724 467 L 724 536 L 726 537 L 749 537 L 749 489 Q 756 479 774 480 L 776 456 Q 772 454 764 455 Z M 402 456 L 401 457 L 347 457 L 342 458 L 340 460 Q 342 465 339 467 L 339 487 Q 341 488 340 493 L 346 496 L 413 498 L 414 499 L 417 498 L 429 498 L 430 496 L 430 461 L 429 459 L 423 456 L 420 457 L 418 456 L 402 456 Z M 789 456 L 789 478 L 788 479 L 788 536 L 790 537 L 813 537 L 813 457 L 813 456 L 789 456 Z M 311 504 L 309 505 L 306 509 L 306 537 L 307 539 L 311 541 L 338 544 L 339 545 L 346 545 L 347 546 L 363 547 L 364 548 Q 374 550 380 547 L 382 543 L 382 511 L 381 509 L 378 506 Q 373 507 372 505 L 356 505 L 355 504 L 311 504 Z M 390 509 L 388 510 L 384 516 L 384 543 L 385 547 L 391 551 L 401 553 L 464 560 L 465 561 L 472 561 L 480 563 L 510 566 L 511 567 L 528 567 Q 553 562 577 554 L 580 549 L 580 516 L 579 514 L 577 511 L 573 510 L 547 510 L 546 509 L 523 511 L 522 512 L 485 512 L 484 511 L 466 511 L 465 510 L 445 510 L 444 509 L 390 509 Z "
     id="path496" />
  <path
     fill="rgb(0,0,0)"
     stroke="rgb(0,0,0)"
     stroke-width="1"
     opacity="0"
     d="M 1051.5 443 L 1061.5 443 L 1069.5 445 Q 1080.3 449.3 1086 458.5 L 1090 467.5 L 1092 482.5 L 1089 497.5 L 1082.5 507 L 1071.5 500 L 1054.5 499 L 1051 500.5 L 1066 516.5 L 1066 518 L 1060.5 519 L 1050.5 519 Q 1036.8 516.7 1030 507.5 Q 1020.7 497.3 1021 477.5 L 1023 467.5 L 1027 459.5 L 1036.5 449 L 1043.5 445 L 1051.5 443 Z "
     id="path498" />
  <path
     fill="rgb(0,0,0)"
     stroke="rgb(0,0,0)"
     stroke-width="1"
     opacity="0"
     d="M 650 445 L 669.5 445 Q 675.3 446.3 678 450.5 Q 676.8 455.3 679 456.5 L 676 464 Q 668.8 470 652.5 468 L 650 467 L 650 445 Z "
     id="path500" />
  <path
     fill="rgb(0,0,0)"
     stroke="rgb(0,0,0)"
     stroke-width="1"
     opacity="0"
     d="M 650 489 L 673.5 489 L 682 493 Q 685.1 496.6 684 505.5 L 679.5 512 L 670.5 515 L 650 515 L 650 489 Z "
     id="path502" />
  <text
     xml:space="preserve"
     style="fill:#81d6fb;fill-opacity:1;stroke:#81d6fb;stroke-opacity:1"
     x="622.59174"
     y="771.78955"
     id="text30291"><tspan
       sodipodi:role="line"
       id="tspan30289"
       x="622.59174"
       y="771.78955" /></text>
</svg>
